# xmcd
# Copyright (C) 1995-1998 Ti Kan
#
# Track frame offsets:
#       150
#       22708
#       40613
#       55583
#       75905
#       91698
#       120782
#       127774
#       149257
#       179810
#       195705
#
# Disc length: 2957 seconds
#
# Revision: 0
# Processed by: cddbd v1.5.2PL0 Copyright (c) Steve Scherf et al.
# Submitted via: CD-Import v1.0
#
DISCID=740b8b0b
DTITLE=Portishead - Third
DYEAR=2008
DGENRE=
TTITLE0=Silence
TTITLE1=Hunter
TTITLE2=Nylon Smile
TTITLE3=The Rip
TTITLE4=Plastic
TTITLE5=We Carry On
TTITLE6=Deep Water
TTITLE7=Machine Gun
TTITLE8=Small
TTITLE9=Magic Doors
TTITLE10=Threads
EXTD=
EXTT0=
EXTT1=
EXTT2=
EXTT3=
EXTT4=
EXTT5=
EXTT6=
EXTT7=
EXTT8=
EXTT9=
EXTT10=
PLAYORDER=
